<mxfile host="Electron" agent="Mozilla/5.0 (Windows NT 10.0; Win64; x64) AppleWebKit/537.36 (KHTML, like Gecko) draw.io/28.1.2 Chrome/138.0.7204.243 Electron/37.4.0 Safari/537.36" version="28.1.2">
  <diagram name="Page-1" id="uIif4deYK2l8mIWnEml8">
    <mxGraphModel dx="1305" dy="970" grid="1" gridSize="10" guides="1" tooltips="1" connect="1" arrows="1" fold="1" page="1" pageScale="1" pageWidth="850" pageHeight="1100" math="0" shadow="0">
      <root>
        <mxCell id="0" />
        <mxCell id="1" parent="0" />
        <mxCell id="E82b9lLqei504k9NGsRC-1" value="&lt;div&gt;Krav 1 - Fagregistrering: Studenter skal kunne søke etter, se detaljer om og registrere seg på tilgjengelige fag&lt;/div&gt;&lt;div&gt;&lt;br&gt;&lt;/div&gt;&lt;div&gt;Krav 2 - Tilgang til undervisningsmateriale: Brukere skal kunne se og laste ned kursmateriale (dokumenter, videoer, presentasjoner)&lt;/div&gt;&lt;div&gt;&lt;br&gt;&lt;/div&gt;&lt;div&gt;Krav 3 - Innleveringssystem: Studenter skal kunne laste opp og levere inn oppgaver med filvedlegg&lt;/div&gt;&lt;div&gt;&lt;br&gt;&lt;/div&gt;&lt;div&gt;Krav 4 - Fagadministrasjon: Lærere skal kunne opprette, redigere faginnhold og administrere studentlister&lt;/div&gt;&lt;div&gt;&lt;br&gt;&lt;/div&gt;&lt;div&gt;Krav 5 - Vurderingssystem: Lærere skal kunne gi karakterer og tilbakemelding på studentenes innleveringer&lt;/div&gt;" style="text;html=1;align=left;verticalAlign=middle;resizable=0;points=[];autosize=1;strokeColor=none;fillColor=none;" vertex="1" parent="1">
          <mxGeometry x="22.5" y="60" width="720" height="140" as="geometry" />
        </mxCell>
        <mxCell id="E82b9lLqei504k9NGsRC-2" value="Studieadministrasjonssystem&amp;nbsp;" style="shape=umlActor;verticalLabelPosition=bottom;verticalAlign=top;html=1;outlineConnect=0;" vertex="1" parent="1">
          <mxGeometry x="210" y="460" width="30" height="60" as="geometry" />
        </mxCell>
        <mxCell id="E82b9lLqei504k9NGsRC-3" value="Lærer&amp;nbsp;" style="shape=umlActor;verticalLabelPosition=bottom;verticalAlign=top;html=1;outlineConnect=0;" vertex="1" parent="1">
          <mxGeometry x="180" y="300" width="30" height="60" as="geometry" />
        </mxCell>
        <mxCell id="E82b9lLqei504k9NGsRC-11" value="Studenter" style="shape=umlActor;verticalLabelPosition=bottom;verticalAlign=top;html=1;outlineConnect=0;" vertex="1" parent="1">
          <mxGeometry x="40" y="300" width="30" height="60" as="geometry" />
        </mxCell>
        <mxCell id="E82b9lLqei504k9NGsRC-12" value="Admin (IT/Drift)" style="shape=umlActor;verticalLabelPosition=bottom;verticalAlign=top;html=1;outlineConnect=0;" vertex="1" parent="1">
          <mxGeometry x="60" y="460" width="30" height="60" as="geometry" />
        </mxCell>
        <mxCell id="E82b9lLqei504k9NGsRC-13" value="eksterne" style="text;html=1;align=center;verticalAlign=middle;resizable=0;points=[];autosize=1;strokeColor=none;fillColor=none;" vertex="1" parent="1">
          <mxGeometry x="65" y="238" width="70" height="30" as="geometry" />
        </mxCell>
        <mxCell id="E82b9lLqei504k9NGsRC-14" value="interne" style="text;html=1;align=center;verticalAlign=middle;resizable=0;points=[];autosize=1;strokeColor=none;fillColor=none;" vertex="1" parent="1">
          <mxGeometry x="90" y="418" width="60" height="30" as="geometry" />
        </mxCell>
        <mxCell id="E82b9lLqei504k9NGsRC-15" value="" style="whiteSpace=wrap;html=1;aspect=fixed;" vertex="1" parent="1">
          <mxGeometry x="290" y="215" width="480" height="480" as="geometry" />
        </mxCell>
        <mxCell id="E82b9lLqei504k9NGsRC-16" value="" style="whiteSpace=wrap;html=1;aspect=fixed;dashed=1;" vertex="1" parent="1">
          <mxGeometry x="317.5" y="250" width="380" height="380" as="geometry" />
        </mxCell>
        <mxCell id="E82b9lLqei504k9NGsRC-18" value="Studenter" style="shape=umlActor;verticalLabelPosition=bottom;verticalAlign=top;html=1;outlineConnect=0;" vertex="1" parent="1">
          <mxGeometry x="290" y="320" width="12.5" height="50" as="geometry" />
        </mxCell>
        <mxCell id="E82b9lLqei504k9NGsRC-22" value="" style="edgeStyle=orthogonalEdgeStyle;rounded=0;orthogonalLoop=1;jettySize=auto;html=1;" edge="1" parent="1" source="E82b9lLqei504k9NGsRC-19" target="E82b9lLqei504k9NGsRC-21">
          <mxGeometry relative="1" as="geometry" />
        </mxCell>
        <mxCell id="E82b9lLqei504k9NGsRC-19" value="Oprette konto" style="ellipse;whiteSpace=wrap;html=1;" vertex="1" parent="1">
          <mxGeometry x="350" y="290" width="60" height="40" as="geometry" />
        </mxCell>
        <mxCell id="E82b9lLqei504k9NGsRC-20" value="Logge inn" style="ellipse;whiteSpace=wrap;html=1;" vertex="1" parent="1">
          <mxGeometry x="350" y="340" width="60" height="40" as="geometry" />
        </mxCell>
        <mxCell id="E82b9lLqei504k9NGsRC-21" value="Velge fag" style="ellipse;whiteSpace=wrap;html=1;direction=south;" vertex="1" parent="1">
          <mxGeometry x="360" y="400" width="40" height="60" as="geometry" />
        </mxCell>
        <mxCell id="E82b9lLqei504k9NGsRC-26" value="" style="whiteSpace=wrap;html=1;aspect=fixed;" vertex="1" parent="1">
          <mxGeometry x="65" y="960" width="650" height="650" as="geometry" />
        </mxCell>
        <mxCell id="E82b9lLqei504k9NGsRC-28" value="E- Læring System&amp;nbsp;" style="text;html=1;align=center;verticalAlign=middle;whiteSpace=wrap;rounded=0;" vertex="1" parent="1">
          <mxGeometry x="90" y="970" width="170" height="30" as="geometry" />
        </mxCell>
        <mxCell id="E82b9lLqei504k9NGsRC-35" style="edgeStyle=orthogonalEdgeStyle;rounded=0;orthogonalLoop=1;jettySize=auto;html=1;entryX=0.5;entryY=0;entryDx=0;entryDy=0;" edge="1" parent="1" target="E82b9lLqei504k9NGsRC-37">
          <mxGeometry relative="1" as="geometry">
            <mxPoint x="370" y="1013.5" as="sourcePoint" />
          </mxGeometry>
        </mxCell>
        <mxCell id="E82b9lLqei504k9NGsRC-36" value="" style="edgeStyle=orthogonalEdgeStyle;rounded=0;orthogonalLoop=1;jettySize=auto;html=1;" edge="1" parent="1" source="E82b9lLqei504k9NGsRC-64" target="E82b9lLqei504k9NGsRC-39">
          <mxGeometry relative="1" as="geometry" />
        </mxCell>
        <mxCell id="E82b9lLqei504k9NGsRC-37" value="Log in to the system&amp;nbsp;" style="rounded=1;whiteSpace=wrap;html=1;" vertex="1" parent="1">
          <mxGeometry x="320" y="1070" width="87.5" height="50" as="geometry" />
        </mxCell>
        <mxCell id="E82b9lLqei504k9NGsRC-38" value="" style="edgeStyle=orthogonalEdgeStyle;rounded=0;orthogonalLoop=1;jettySize=auto;html=1;" edge="1" parent="1" source="E82b9lLqei504k9NGsRC-39" target="E82b9lLqei504k9NGsRC-41">
          <mxGeometry relative="1" as="geometry">
            <Array as="points">
              <mxPoint x="468" y="1270" />
              <mxPoint x="370" y="1270" />
            </Array>
          </mxGeometry>
        </mxCell>
        <mxCell id="E82b9lLqei504k9NGsRC-39" value="Serch for course" style="rounded=1;whiteSpace=wrap;html=1;" vertex="1" parent="1">
          <mxGeometry x="407.5" y="1220" width="120" height="33.5" as="geometry" />
        </mxCell>
        <mxCell id="E82b9lLqei504k9NGsRC-40" value="" style="edgeStyle=orthogonalEdgeStyle;rounded=0;orthogonalLoop=1;jettySize=auto;html=1;" edge="1" parent="1" source="E82b9lLqei504k9NGsRC-41" target="E82b9lLqei504k9NGsRC-43">
          <mxGeometry relative="1" as="geometry" />
        </mxCell>
        <mxCell id="E82b9lLqei504k9NGsRC-41" value="Select Course" style="rounded=1;whiteSpace=wrap;html=1;" vertex="1" parent="1">
          <mxGeometry x="310" y="1273.5" width="120" height="60" as="geometry" />
        </mxCell>
        <mxCell id="E82b9lLqei504k9NGsRC-42" value="" style="edgeStyle=orthogonalEdgeStyle;rounded=0;orthogonalLoop=1;jettySize=auto;html=1;" edge="1" parent="1" source="E82b9lLqei504k9NGsRC-43" target="E82b9lLqei504k9NGsRC-46">
          <mxGeometry relative="1" as="geometry" />
        </mxCell>
        <mxCell id="E82b9lLqei504k9NGsRC-43" value="Register for course" style="rounded=1;whiteSpace=wrap;html=1;" vertex="1" parent="1">
          <mxGeometry x="257.5" y="1370" width="225" height="40" as="geometry" />
        </mxCell>
        <mxCell id="E82b9lLqei504k9NGsRC-44" style="edgeStyle=orthogonalEdgeStyle;rounded=0;orthogonalLoop=1;jettySize=auto;html=1;" edge="1" parent="1" source="E82b9lLqei504k9NGsRC-46">
          <mxGeometry relative="1" as="geometry">
            <mxPoint x="500" y="1473.5" as="targetPoint" />
          </mxGeometry>
        </mxCell>
        <mxCell id="E82b9lLqei504k9NGsRC-45" style="edgeStyle=orthogonalEdgeStyle;rounded=0;orthogonalLoop=1;jettySize=auto;html=1;" edge="1" parent="1" source="E82b9lLqei504k9NGsRC-46">
          <mxGeometry relative="1" as="geometry">
            <mxPoint x="270" y="1483.5" as="targetPoint" />
            <Array as="points">
              <mxPoint x="270" y="1448.5" />
              <mxPoint x="270" y="1483.5" />
            </Array>
          </mxGeometry>
        </mxCell>
        <mxCell id="E82b9lLqei504k9NGsRC-46" value="Course registiration valid ?" style="shape=hexagon;perimeter=hexagonPerimeter2;whiteSpace=wrap;html=1;fixedSize=1;" vertex="1" parent="1">
          <mxGeometry x="290" y="1433.5" width="190" height="30" as="geometry" />
        </mxCell>
        <mxCell id="E82b9lLqei504k9NGsRC-47" value="No" style="text;html=1;align=center;verticalAlign=middle;resizable=0;points=[];autosize=1;strokeColor=none;fillColor=none;" vertex="1" parent="1">
          <mxGeometry x="470" y="1423.5" width="40" height="30" as="geometry" />
        </mxCell>
        <mxCell id="E82b9lLqei504k9NGsRC-48" value="Yes" style="text;html=1;align=center;verticalAlign=middle;resizable=0;points=[];autosize=1;strokeColor=none;fillColor=none;" vertex="1" parent="1">
          <mxGeometry x="250" y="1423.5" width="40" height="30" as="geometry" />
        </mxCell>
        <mxCell id="E82b9lLqei504k9NGsRC-49" style="edgeStyle=orthogonalEdgeStyle;rounded=0;orthogonalLoop=1;jettySize=auto;html=1;entryX=1;entryY=0.5;entryDx=0;entryDy=0;" edge="1" parent="1" source="E82b9lLqei504k9NGsRC-50" target="E82b9lLqei504k9NGsRC-54">
          <mxGeometry relative="1" as="geometry" />
        </mxCell>
        <mxCell id="E82b9lLqei504k9NGsRC-50" value="Show error message" style="rounded=1;whiteSpace=wrap;html=1;" vertex="1" parent="1">
          <mxGeometry x="440" y="1483.5" width="120" height="20" as="geometry" />
        </mxCell>
        <mxCell id="E82b9lLqei504k9NGsRC-51" style="edgeStyle=orthogonalEdgeStyle;rounded=0;orthogonalLoop=1;jettySize=auto;html=1;entryX=0;entryY=0.5;entryDx=0;entryDy=0;" edge="1" parent="1" source="E82b9lLqei504k9NGsRC-52" target="E82b9lLqei504k9NGsRC-54">
          <mxGeometry relative="1" as="geometry" />
        </mxCell>
        <mxCell id="E82b9lLqei504k9NGsRC-52" value="Confirm Registiration" style="rounded=1;whiteSpace=wrap;html=1;" vertex="1" parent="1">
          <mxGeometry x="210" y="1483.5" width="120" height="20" as="geometry" />
        </mxCell>
        <mxCell id="E82b9lLqei504k9NGsRC-53" value="" style="edgeStyle=orthogonalEdgeStyle;rounded=0;orthogonalLoop=1;jettySize=auto;html=1;" edge="1" parent="1" source="E82b9lLqei504k9NGsRC-54" target="E82b9lLqei504k9NGsRC-55">
          <mxGeometry relative="1" as="geometry" />
        </mxCell>
        <mxCell id="E82b9lLqei504k9NGsRC-54" value="" style="rhombus;whiteSpace=wrap;html=1;" vertex="1" parent="1">
          <mxGeometry x="375" y="1513.5" width="15" height="20" as="geometry" />
        </mxCell>
        <mxCell id="E82b9lLqei504k9NGsRC-55" value="" style="ellipse;html=1;shape=endState;fillColor=#000000;strokeColor=#ff0000;" vertex="1" parent="1">
          <mxGeometry x="367.5" y="1553.5" width="30" height="35" as="geometry" />
        </mxCell>
        <mxCell id="E82b9lLqei504k9NGsRC-63" value="" style="edgeStyle=orthogonalEdgeStyle;rounded=0;orthogonalLoop=1;jettySize=auto;html=1;" edge="1" parent="1" source="E82b9lLqei504k9NGsRC-56" target="E82b9lLqei504k9NGsRC-62">
          <mxGeometry relative="1" as="geometry" />
        </mxCell>
        <mxCell id="E82b9lLqei504k9NGsRC-56" value="" style="strokeWidth=2;html=1;shape=mxgraph.flowchart.start_2;whiteSpace=wrap;strokeColor=#000000;" vertex="1" parent="1">
          <mxGeometry x="350" y="970" width="30" height="30" as="geometry" />
        </mxCell>
        <mxCell id="E82b9lLqei504k9NGsRC-60" value="&lt;span style=&quot;color: rgb(51, 51, 255); font-family: &amp;quot;Times New Roman&amp;quot;; font-size: 20px; font-weight: 700; text-align: left;&quot;&gt;1- Student registers for a course&lt;/span&gt;" style="text;html=1;align=center;verticalAlign=middle;resizable=0;points=[];autosize=1;strokeColor=none;fillColor=none;" vertex="1" parent="1">
          <mxGeometry x="170" y="770" width="300" height="40" as="geometry" />
        </mxCell>
        <mxCell id="E82b9lLqei504k9NGsRC-61" value="Start → Log in to the system →&amp;nbsp; &amp;nbsp;Search for courses → Select course → Enroll (Meld på)&lt;br&gt;&lt;br&gt;&lt;div&gt;If the registration is valid?&lt;br&gt;&lt;br&gt;&lt;/div&gt;&lt;div&gt;Yes: System confirms registration → End&lt;br&gt;&lt;br&gt;&lt;/div&gt;&lt;div&gt;No: Show error message → *End&lt;/div&gt;" style="text;html=1;align=left;verticalAlign=middle;resizable=0;points=[];autosize=1;strokeColor=none;fillColor=none;fontSize=14;fontStyle=1" vertex="1" parent="1">
          <mxGeometry x="90" y="805" width="570" height="130" as="geometry" />
        </mxCell>
        <mxCell id="E82b9lLqei504k9NGsRC-62" value="Opprett konto&amp;nbsp;" style="rounded=1;whiteSpace=wrap;html=1;" vertex="1" parent="1">
          <mxGeometry x="320" y="1013.5" width="90" height="46.5" as="geometry" />
        </mxCell>
        <mxCell id="E82b9lLqei504k9NGsRC-67" value="yes" style="text;strokeColor=none;align=center;fillColor=none;html=1;verticalAlign=middle;whiteSpace=wrap;rounded=0;" vertex="1" parent="1">
          <mxGeometry x="390" y="1160" width="60" height="30" as="geometry" />
        </mxCell>
        <mxCell id="E82b9lLqei504k9NGsRC-80" style="edgeStyle=orthogonalEdgeStyle;rounded=0;orthogonalLoop=1;jettySize=auto;html=1;entryX=-0.008;entryY=0.412;entryDx=0;entryDy=0;entryPerimeter=0;" edge="1" parent="1" source="E82b9lLqei504k9NGsRC-64" target="E82b9lLqei504k9NGsRC-37">
          <mxGeometry relative="1" as="geometry">
            <Array as="points">
              <mxPoint x="300" y="1180" />
              <mxPoint x="300" y="1091" />
            </Array>
          </mxGeometry>
        </mxCell>
        <mxCell id="E82b9lLqei504k9NGsRC-81" value="No" style="edgeLabel;html=1;align=center;verticalAlign=middle;resizable=0;points=[];" vertex="1" connectable="0" parent="E82b9lLqei504k9NGsRC-80">
          <mxGeometry x="-0.776" y="-1" relative="1" as="geometry">
            <mxPoint x="-3" y="-9" as="offset" />
          </mxGeometry>
        </mxCell>
        <mxCell id="E82b9lLqei504k9NGsRC-82" value="" style="edgeStyle=orthogonalEdgeStyle;rounded=0;orthogonalLoop=1;jettySize=auto;html=1;" edge="1" parent="1" source="E82b9lLqei504k9NGsRC-37" target="E82b9lLqei504k9NGsRC-64">
          <mxGeometry relative="1" as="geometry">
            <mxPoint x="364" y="1120" as="sourcePoint" />
            <mxPoint x="468" y="1220" as="targetPoint" />
          </mxGeometry>
        </mxCell>
        <mxCell id="E82b9lLqei504k9NGsRC-64" value="Logget inn?" style="rhombus;whiteSpace=wrap;html=1;fontSize=8;" vertex="1" parent="1">
          <mxGeometry x="338.75" y="1160" width="50" height="50" as="geometry" />
        </mxCell>
        <mxCell id="E82b9lLqei504k9NGsRC-84" value="Case 3: E-Learning Platform" style="text;html=1;align=center;verticalAlign=middle;resizable=0;points=[];autosize=1;strokeColor=none;fillColor=none;fontColor=#FF2356;fontStyle=1;fontSize=22;" vertex="1" parent="1">
          <mxGeometry x="180" y="10" width="300" height="40" as="geometry" />
        </mxCell>
      </root>
    </mxGraphModel>
  </diagram>
</mxfile>
